<svg id="visual" viewBox="0 0 900 600" width="900" height="600" xmlns="http://www.w3.org/2000/svg" xmlns:xlink="http://www.w3.org/1999/xlink" version="1.1"><g stroke-width="1" stroke-linejoin="bevel"><path d="M466 292L406 243L439 317Z" fill="#89afc9" stroke="#89afc9"></path><path d="M466 292L469 241L406 243Z" fill="#5f96b8" stroke="#5f96b8"></path><path d="M469 241L441 202L406 243Z" fill="#d8e4ed" stroke="#d8e4ed"></path><path d="M339 246L348 277L406 243Z" fill="#ffffff" stroke="#ffffff"></path><path d="M406 243L348 277L439 317Z" fill="#75a3c0" stroke="#75a3c0"></path><path d="M349 190L339 246L406 243Z" fill="#89afc9" stroke="#89afc9"></path><path d="M337 362L414 376L439 317Z" fill="#b1c9db" stroke="#b1c9db"></path><path d="M439 317L500 372L466 292Z" fill="#89afc9" stroke="#89afc9"></path><path d="M441 202L349 190L406 243Z" fill="#75a3c0" stroke="#75a3c0"></path><path d="M414 376L500 372L439 317Z" fill="#478aaf" stroke="#478aaf"></path><path d="M466 292L550 277L469 241Z" fill="#b1c9db" stroke="#b1c9db"></path><path d="M500 372L550 277L466 292Z" fill="#ebf1f6" stroke="#ebf1f6"></path><path d="M469 241L494 156L441 202Z" fill="#478aaf" stroke="#478aaf"></path><path d="M295 315L337 362L348 277Z" fill="#ebf1f6" stroke="#ebf1f6"></path><path d="M348 277L337 362L439 317Z" fill="#c4d6e4" stroke="#c4d6e4"></path><path d="M550 277L552 226L469 241Z" fill="#5f96b8" stroke="#5f96b8"></path><path d="M280 247L348 277L339 246Z" fill="#b1c9db" stroke="#b1c9db"></path><path d="M280 247L295 315L348 277Z" fill="#ebf1f6" stroke="#ebf1f6"></path><path d="M530 169L494 156L469 241Z" fill="#297ea6" stroke="#297ea6"></path><path d="M401 106L337 135L349 190Z" fill="#478aaf" stroke="#478aaf"></path><path d="M488 421L535 372L500 372Z" fill="#297ea6" stroke="#297ea6"></path><path d="M500 372L535 372L550 277Z" fill="#9dbcd2" stroke="#9dbcd2"></path><path d="M337 410L442 425L414 376Z" fill="#d8e4ed" stroke="#d8e4ed"></path><path d="M414 376L442 425L500 372Z" fill="#75a3c0" stroke="#75a3c0"></path><path d="M552 226L530 169L469 241Z" fill="#9dbcd2" stroke="#9dbcd2"></path><path d="M349 190L280 247L339 246Z" fill="#d8e4ed" stroke="#d8e4ed"></path><path d="M442 425L488 421L500 372Z" fill="#d8e4ed" stroke="#d8e4ed"></path><path d="M308 402L337 410L337 362Z" fill="#75a3c0" stroke="#75a3c0"></path><path d="M337 362L337 410L414 376Z" fill="#b1c9db" stroke="#b1c9db"></path><path d="M226 369L294 368L295 315Z" fill="#297ea6" stroke="#297ea6"></path><path d="M295 315L294 368L337 362Z" fill="#478aaf" stroke="#478aaf"></path><path d="M597 279L592 260L550 277Z" fill="#c4d6e4" stroke="#c4d6e4"></path><path d="M550 277L592 260L552 226Z" fill="#297ea6" stroke="#297ea6"></path><path d="M552 226L579 181L530 169Z" fill="#89afc9" stroke="#89afc9"></path><path d="M401 106L349 190L441 202Z" fill="#75a3c0" stroke="#75a3c0"></path><path d="M349 190L295 163L280 247Z" fill="#b1c9db" stroke="#b1c9db"></path><path d="M593 345L597 279L550 277Z" fill="#75a3c0" stroke="#75a3c0"></path><path d="M294 368L308 402L337 362Z" fill="#297ea6" stroke="#297ea6"></path><path d="M499 118L401 106L494 156Z" fill="#ffffff" stroke="#ffffff"></path><path d="M494 156L401 106L441 202Z" fill="#297ea6" stroke="#297ea6"></path><path d="M557 97L499 118L530 169Z" fill="#9dbcd2" stroke="#9dbcd2"></path><path d="M530 169L499 118L494 156Z" fill="#c4d6e4" stroke="#c4d6e4"></path><path d="M337 135L295 163L349 190Z" fill="#ffffff" stroke="#ffffff"></path><path d="M621 401L593 345L535 372Z" fill="#d8e4ed" stroke="#d8e4ed"></path><path d="M535 372L593 345L550 277Z" fill="#297ea6" stroke="#297ea6"></path><path d="M636 179L579 181L592 260Z" fill="#478aaf" stroke="#478aaf"></path><path d="M592 260L579 181L552 226Z" fill="#d8e4ed" stroke="#d8e4ed"></path><path d="M488 421L548 424L535 372Z" fill="#9dbcd2" stroke="#9dbcd2"></path><path d="M531 487L548 424L488 421Z" fill="#c4d6e4" stroke="#c4d6e4"></path><path d="M222 238L224 286L280 247Z" fill="#75a3c0" stroke="#75a3c0"></path><path d="M280 247L224 286L295 315Z" fill="#ebf1f6" stroke="#ebf1f6"></path><path d="M294 368L259 409L308 402Z" fill="#478aaf" stroke="#478aaf"></path><path d="M337 135L283 134L295 163Z" fill="#478aaf" stroke="#478aaf"></path><path d="M223 196L222 238L280 247Z" fill="#89afc9" stroke="#89afc9"></path><path d="M284 65L283 134L337 135Z" fill="#ffffff" stroke="#ffffff"></path><path d="M490 69L406 74L401 106Z" fill="#478aaf" stroke="#478aaf"></path><path d="M401 106L358 81L337 135Z" fill="#89afc9" stroke="#89afc9"></path><path d="M406 74L358 81L401 106Z" fill="#89afc9" stroke="#89afc9"></path><path d="M223 196L280 247L295 163Z" fill="#ffffff" stroke="#ffffff"></path><path d="M226 369L259 409L294 368Z" fill="#b1c9db" stroke="#b1c9db"></path><path d="M308 402L313 473L337 410Z" fill="#5f96b8" stroke="#5f96b8"></path><path d="M337 410L409 495L442 425Z" fill="#89afc9" stroke="#89afc9"></path><path d="M549 78L490 69L499 118Z" fill="#75a3c0" stroke="#75a3c0"></path><path d="M499 118L490 69L401 106Z" fill="#9dbcd2" stroke="#9dbcd2"></path><path d="M363 496L409 495L337 410Z" fill="#9dbcd2" stroke="#9dbcd2"></path><path d="M442 425L491 495L488 421Z" fill="#297ea6" stroke="#297ea6"></path><path d="M649 282L647 263L597 279Z" fill="#5f96b8" stroke="#5f96b8"></path><path d="M597 279L647 263L592 260Z" fill="#d8e4ed" stroke="#d8e4ed"></path><path d="M587 104L557 97L530 169Z" fill="#ebf1f6" stroke="#ebf1f6"></path><path d="M649 282L597 279L593 345Z" fill="#5f96b8" stroke="#5f96b8"></path><path d="M283 134L223 196L295 163Z" fill="#ebf1f6" stroke="#ebf1f6"></path><path d="M675 366L649 282L593 345Z" fill="#9dbcd2" stroke="#9dbcd2"></path><path d="M224 286L226 369L295 315Z" fill="#5f96b8" stroke="#5f96b8"></path><path d="M171 358L226 369L224 286Z" fill="#89afc9" stroke="#89afc9"></path><path d="M587 104L530 169L579 181Z" fill="#d8e4ed" stroke="#d8e4ed"></path><path d="M409 495L491 495L442 425Z" fill="#478aaf" stroke="#478aaf"></path><path d="M259 409L313 473L308 402Z" fill="#89afc9" stroke="#89afc9"></path><path d="M313 473L363 496L337 410Z" fill="#297ea6" stroke="#297ea6"></path><path d="M409 495L433 537L491 495Z" fill="#5f96b8" stroke="#5f96b8"></path><path d="M590 463L621 401L548 424Z" fill="#ffffff" stroke="#ffffff"></path><path d="M548 424L621 401L535 372Z" fill="#89afc9" stroke="#89afc9"></path><path d="M647 263L636 179L592 260Z" fill="#ebf1f6" stroke="#ebf1f6"></path><path d="M159 237L196 282L222 238Z" fill="#75a3c0" stroke="#75a3c0"></path><path d="M222 238L196 282L224 286Z" fill="#5f96b8" stroke="#5f96b8"></path><path d="M491 495L531 487L488 421Z" fill="#75a3c0" stroke="#75a3c0"></path><path d="M594 68L549 78L557 97Z" fill="#ffffff" stroke="#ffffff"></path><path d="M557 97L549 78L499 118Z" fill="#b1c9db" stroke="#b1c9db"></path><path d="M636 179L587 104L579 181Z" fill="#9dbcd2" stroke="#9dbcd2"></path><path d="M531 487L590 463L548 424Z" fill="#c4d6e4" stroke="#c4d6e4"></path><path d="M342 0L284 65L358 81Z" fill="#ffffff" stroke="#ffffff"></path><path d="M358 81L284 65L337 135Z" fill="#5f96b8" stroke="#5f96b8"></path><path d="M283 134L235 107L223 196Z" fill="#9dbcd2" stroke="#9dbcd2"></path><path d="M342 0L358 81L406 74Z" fill="#5f96b8" stroke="#5f96b8"></path><path d="M284 65L235 107L283 134Z" fill="#478aaf" stroke="#478aaf"></path><path d="M223 196L159 237L222 238Z" fill="#297ea6" stroke="#297ea6"></path><path d="M362 534L409 495L363 496Z" fill="#75a3c0" stroke="#75a3c0"></path><path d="M362 534L433 537L409 495Z" fill="#ffffff" stroke="#ffffff"></path><path d="M491 495L501 552L531 487Z" fill="#297ea6" stroke="#297ea6"></path><path d="M640 460L621 401L590 463Z" fill="#75a3c0" stroke="#75a3c0"></path><path d="M621 401L675 366L593 345Z" fill="#d8e4ed" stroke="#d8e4ed"></path><path d="M649 282L734 238L647 263Z" fill="#297ea6" stroke="#297ea6"></path><path d="M723 168L698 142L636 179Z" fill="#75a3c0" stroke="#75a3c0"></path><path d="M652 443L675 366L621 401Z" fill="#297ea6" stroke="#297ea6"></path><path d="M288 518L363 496L313 473Z" fill="#ffffff" stroke="#ffffff"></path><path d="M288 518L362 534L363 496Z" fill="#9dbcd2" stroke="#9dbcd2"></path><path d="M234 463L313 473L259 409Z" fill="#5f96b8" stroke="#5f96b8"></path><path d="M670 99L594 68L587 104Z" fill="#5f96b8" stroke="#5f96b8"></path><path d="M587 104L594 68L557 97Z" fill="#89afc9" stroke="#89afc9"></path><path d="M475 0L418 0L490 69Z" fill="#ffffff" stroke="#ffffff"></path><path d="M490 69L418 0L406 74Z" fill="#b1c9db" stroke="#b1c9db"></path><path d="M189 404L259 409L226 369Z" fill="#ebf1f6" stroke="#ebf1f6"></path><path d="M189 404L234 463L259 409Z" fill="#478aaf" stroke="#478aaf"></path><path d="M142 353L171 358L196 282Z" fill="#ebf1f6" stroke="#ebf1f6"></path><path d="M196 282L171 358L224 286Z" fill="#ebf1f6" stroke="#ebf1f6"></path><path d="M171 358L189 404L226 369Z" fill="#5f96b8" stroke="#5f96b8"></path><path d="M235 107L177 177L223 196Z" fill="#b1c9db" stroke="#b1c9db"></path><path d="M177 177L159 237L223 196Z" fill="#478aaf" stroke="#478aaf"></path><path d="M475 0L490 69L551 0Z" fill="#297ea6" stroke="#297ea6"></path><path d="M234 463L288 518L313 473Z" fill="#ffffff" stroke="#ffffff"></path><path d="M640 460L590 463L636 550Z" fill="#89afc9" stroke="#89afc9"></path><path d="M640 460L652 443L621 401Z" fill="#9dbcd2" stroke="#9dbcd2"></path><path d="M582 548L590 463L531 487Z" fill="#9dbcd2" stroke="#9dbcd2"></path><path d="M551 0L490 69L549 78Z" fill="#c4d6e4" stroke="#c4d6e4"></path><path d="M434 600L501 552L433 537Z" fill="#c4d6e4" stroke="#c4d6e4"></path><path d="M433 537L501 552L491 495Z" fill="#ffffff" stroke="#ffffff"></path><path d="M418 0L342 0L406 74Z" fill="#b1c9db" stroke="#b1c9db"></path><path d="M284 65L216 78L235 107Z" fill="#ffffff" stroke="#ffffff"></path><path d="M235 107L182 108L177 177Z" fill="#89afc9" stroke="#89afc9"></path><path d="M223 0L216 78L284 65Z" fill="#297ea6" stroke="#297ea6"></path><path d="M105 276L142 353L196 282Z" fill="#9dbcd2" stroke="#9dbcd2"></path><path d="M171 358L142 353L189 404Z" fill="#ebf1f6" stroke="#ebf1f6"></path><path d="M189 404L164 457L234 463Z" fill="#89afc9" stroke="#89afc9"></path><path d="M712 381L723 312L675 366Z" fill="#75a3c0" stroke="#75a3c0"></path><path d="M675 366L723 312L649 282Z" fill="#ffffff" stroke="#ffffff"></path><path d="M636 179L670 99L587 104Z" fill="#89afc9" stroke="#89afc9"></path><path d="M216 78L182 108L235 107Z" fill="#297ea6" stroke="#297ea6"></path><path d="M177 177L132 174L159 237Z" fill="#5f96b8" stroke="#5f96b8"></path><path d="M698 142L670 99L636 179Z" fill="#9dbcd2" stroke="#9dbcd2"></path><path d="M594 68L551 0L549 78Z" fill="#478aaf" stroke="#478aaf"></path><path d="M734 238L636 179L647 263Z" fill="#ebf1f6" stroke="#ebf1f6"></path><path d="M713 426L712 381L675 366Z" fill="#d8e4ed" stroke="#d8e4ed"></path><path d="M713 426L675 366L652 443Z" fill="#5f96b8" stroke="#5f96b8"></path><path d="M586 0L551 0L594 68Z" fill="#478aaf" stroke="#478aaf"></path><path d="M501 552L563 553L531 487Z" fill="#297ea6" stroke="#297ea6"></path><path d="M696 502L713 426L652 443Z" fill="#d8e4ed" stroke="#d8e4ed"></path><path d="M223 0L197 75L216 78Z" fill="#75a3c0" stroke="#75a3c0"></path><path d="M216 78L197 75L182 108Z" fill="#ffffff" stroke="#ffffff"></path><path d="M723 312L734 238L649 282Z" fill="#c4d6e4" stroke="#c4d6e4"></path><path d="M563 553L582 548L531 487Z" fill="#b1c9db" stroke="#b1c9db"></path><path d="M131 140L132 174L177 177Z" fill="#478aaf" stroke="#478aaf"></path><path d="M159 237L105 276L196 282Z" fill="#75a3c0" stroke="#75a3c0"></path><path d="M131 140L177 177L182 108Z" fill="#9dbcd2" stroke="#9dbcd2"></path><path d="M342 0L279 0L284 65Z" fill="#c4d6e4" stroke="#c4d6e4"></path><path d="M734 238L723 168L636 179Z" fill="#d8e4ed" stroke="#d8e4ed"></path><path d="M741 63L640 41L670 99Z" fill="#c4d6e4" stroke="#c4d6e4"></path><path d="M132 174L114 236L159 237Z" fill="#297ea6" stroke="#297ea6"></path><path d="M663 0L640 41L706 0Z" fill="#9dbcd2" stroke="#9dbcd2"></path><path d="M670 99L640 41L594 68Z" fill="#89afc9" stroke="#89afc9"></path><path d="M121 441L164 457L189 404Z" fill="#89afc9" stroke="#89afc9"></path><path d="M234 463L231 546L288 518Z" fill="#75a3c0" stroke="#75a3c0"></path><path d="M121 441L189 404L142 353Z" fill="#c4d6e4" stroke="#c4d6e4"></path><path d="M640 41L586 0L594 68Z" fill="#478aaf" stroke="#478aaf"></path><path d="M696 502L652 443L640 460Z" fill="#297ea6" stroke="#297ea6"></path><path d="M790 382L758 288L723 312Z" fill="#d8e4ed" stroke="#d8e4ed"></path><path d="M723 312L758 288L734 238Z" fill="#9dbcd2" stroke="#9dbcd2"></path><path d="M374 600L433 537L362 534Z" fill="#b1c9db" stroke="#b1c9db"></path><path d="M374 600L434 600L433 537Z" fill="#d8e4ed" stroke="#d8e4ed"></path><path d="M501 552L546 600L563 553Z" fill="#c4d6e4" stroke="#c4d6e4"></path><path d="M598 600L636 550L582 548Z" fill="#9dbcd2" stroke="#9dbcd2"></path><path d="M374 600L362 534L293 600Z" fill="#ebf1f6" stroke="#ebf1f6"></path><path d="M114 236L105 276L159 237Z" fill="#75a3c0" stroke="#75a3c0"></path><path d="M293 600L362 534L288 518Z" fill="#75a3c0" stroke="#75a3c0"></path><path d="M137 76L131 140L182 108Z" fill="#89afc9" stroke="#89afc9"></path><path d="M37 194L41 224L114 236Z" fill="#478aaf" stroke="#478aaf"></path><path d="M41 224L78 322L105 276Z" fill="#c4d6e4" stroke="#c4d6e4"></path><path d="M434 600L498 600L501 552Z" fill="#9dbcd2" stroke="#9dbcd2"></path><path d="M790 382L723 312L712 381Z" fill="#b1c9db" stroke="#b1c9db"></path><path d="M734 238L794 185L723 168Z" fill="#ffffff" stroke="#ffffff"></path><path d="M199 541L231 546L234 463Z" fill="#297ea6" stroke="#297ea6"></path><path d="M758 288L764 254L734 238Z" fill="#478aaf" stroke="#478aaf"></path><path d="M582 548L636 550L590 463Z" fill="#5f96b8" stroke="#5f96b8"></path><path d="M598 600L582 548L563 553Z" fill="#75a3c0" stroke="#75a3c0"></path><path d="M498 600L546 600L501 552Z" fill="#478aaf" stroke="#478aaf"></path><path d="M279 0L223 0L284 65Z" fill="#d8e4ed" stroke="#d8e4ed"></path><path d="M197 75L137 76L182 108Z" fill="#ebf1f6" stroke="#ebf1f6"></path><path d="M76 413L121 441L142 353Z" fill="#297ea6" stroke="#297ea6"></path><path d="M164 457L199 541L234 463Z" fill="#478aaf" stroke="#478aaf"></path><path d="M143 498L199 541L164 457Z" fill="#5f96b8" stroke="#5f96b8"></path><path d="M231 546L293 600L288 518Z" fill="#5f96b8" stroke="#5f96b8"></path><path d="M220 600L293 600L231 546Z" fill="#d8e4ed" stroke="#d8e4ed"></path><path d="M636 550L696 502L640 460Z" fill="#d8e4ed" stroke="#d8e4ed"></path><path d="M713 426L790 382L712 381Z" fill="#ebf1f6" stroke="#ebf1f6"></path><path d="M41 224L105 276L114 236Z" fill="#ffffff" stroke="#ffffff"></path><path d="M105 276L78 322L142 353Z" fill="#9dbcd2" stroke="#9dbcd2"></path><path d="M167 0L137 76L197 75Z" fill="#d8e4ed" stroke="#d8e4ed"></path><path d="M37 194L114 236L132 174Z" fill="#75a3c0" stroke="#75a3c0"></path><path d="M121 441L143 498L164 457Z" fill="#ebf1f6" stroke="#ebf1f6"></path><path d="M0 304L71 338L78 322Z" fill="#b1c9db" stroke="#b1c9db"></path><path d="M78 322L71 338L142 353Z" fill="#c4d6e4" stroke="#c4d6e4"></path><path d="M121 441L63 466L143 498Z" fill="#297ea6" stroke="#297ea6"></path><path d="M741 63L670 99L698 142Z" fill="#9dbcd2" stroke="#9dbcd2"></path><path d="M640 41L663 0L586 0Z" fill="#478aaf" stroke="#478aaf"></path><path d="M762 99L698 142L723 168Z" fill="#c4d6e4" stroke="#c4d6e4"></path><path d="M546 600L598 600L563 553Z" fill="#75a3c0" stroke="#75a3c0"></path><path d="M636 550L727 526L696 502Z" fill="#9dbcd2" stroke="#9dbcd2"></path><path d="M71 338L76 413L142 353Z" fill="#ebf1f6" stroke="#ebf1f6"></path><path d="M800 435L790 382L713 426Z" fill="#b1c9db" stroke="#b1c9db"></path><path d="M758 288L823 301L764 254Z" fill="#478aaf" stroke="#478aaf"></path><path d="M842 243L794 185L764 254Z" fill="#75a3c0" stroke="#75a3c0"></path><path d="M764 254L794 185L734 238Z" fill="#5f96b8" stroke="#5f96b8"></path><path d="M794 185L762 99L723 168Z" fill="#d8e4ed" stroke="#d8e4ed"></path><path d="M762 99L741 63L698 142Z" fill="#b1c9db" stroke="#b1c9db"></path><path d="M223 0L167 0L197 75Z" fill="#75a3c0" stroke="#75a3c0"></path><path d="M199 541L220 600L231 546Z" fill="#d8e4ed" stroke="#d8e4ed"></path><path d="M173 600L220 600L199 541Z" fill="#d8e4ed" stroke="#d8e4ed"></path><path d="M173 600L199 541L110 543Z" fill="#9dbcd2" stroke="#9dbcd2"></path><path d="M670 600L727 526L636 550Z" fill="#5f96b8" stroke="#5f96b8"></path><path d="M696 502L772 489L713 426Z" fill="#478aaf" stroke="#478aaf"></path><path d="M132 174L131 140L56 123Z" fill="#478aaf" stroke="#478aaf"></path><path d="M37 194L132 174L56 123Z" fill="#5f96b8" stroke="#5f96b8"></path><path d="M0 410L63 466L76 413Z" fill="#478aaf" stroke="#478aaf"></path><path d="M769 0L706 0L741 63Z" fill="#c4d6e4" stroke="#c4d6e4"></path><path d="M741 63L706 0L640 41Z" fill="#b1c9db" stroke="#b1c9db"></path><path d="M790 382L823 301L758 288Z" fill="#297ea6" stroke="#297ea6"></path><path d="M81 77L131 140L137 76Z" fill="#9dbcd2" stroke="#9dbcd2"></path><path d="M99 0L81 77L137 76Z" fill="#89afc9" stroke="#89afc9"></path><path d="M81 77L56 123L131 140Z" fill="#5f96b8" stroke="#5f96b8"></path><path d="M598 600L670 600L636 550Z" fill="#b1c9db" stroke="#b1c9db"></path><path d="M777 539L772 489L727 526Z" fill="#c4d6e4" stroke="#c4d6e4"></path><path d="M727 526L772 489L696 502Z" fill="#b1c9db" stroke="#b1c9db"></path><path d="M790 382L860 355L823 301Z" fill="#ffffff" stroke="#ffffff"></path><path d="M772 489L800 435L713 426Z" fill="#89afc9" stroke="#89afc9"></path><path d="M0 375L76 413L71 338Z" fill="#d8e4ed" stroke="#d8e4ed"></path><path d="M76 413L63 466L121 441Z" fill="#75a3c0" stroke="#75a3c0"></path><path d="M0 304L78 322L41 224Z" fill="#b1c9db" stroke="#b1c9db"></path><path d="M110 543L199 541L143 498Z" fill="#75a3c0" stroke="#75a3c0"></path><path d="M63 466L110 543L143 498Z" fill="#b1c9db" stroke="#b1c9db"></path><path d="M823 301L842 243L764 254Z" fill="#ffffff" stroke="#ffffff"></path><path d="M834 103L800 67L762 99Z" fill="#297ea6" stroke="#297ea6"></path><path d="M900 318L842 243L823 301Z" fill="#c4d6e4" stroke="#c4d6e4"></path><path d="M842 243L844 194L794 185Z" fill="#5f96b8" stroke="#5f96b8"></path><path d="M762 99L800 67L741 63Z" fill="#c4d6e4" stroke="#c4d6e4"></path><path d="M834 103L762 99L794 185Z" fill="#478aaf" stroke="#478aaf"></path><path d="M0 251L41 224L0 196Z" fill="#297ea6" stroke="#297ea6"></path><path d="M0 251L0 304L41 224Z" fill="#75a3c0" stroke="#75a3c0"></path><path d="M0 196L41 224L37 194Z" fill="#ffffff" stroke="#ffffff"></path><path d="M0 47L0 126L56 123Z" fill="#75a3c0" stroke="#75a3c0"></path><path d="M0 126L0 196L37 194Z" fill="#d8e4ed" stroke="#d8e4ed"></path><path d="M167 0L99 0L137 76Z" fill="#5f96b8" stroke="#5f96b8"></path><path d="M0 126L37 194L56 123Z" fill="#b1c9db" stroke="#b1c9db"></path><path d="M840 496L854 427L800 435Z" fill="#89afc9" stroke="#89afc9"></path><path d="M739 600L777 539L727 526Z" fill="#9dbcd2" stroke="#9dbcd2"></path><path d="M60 600L132 600L110 543Z" fill="#297ea6" stroke="#297ea6"></path><path d="M110 543L132 600L173 600Z" fill="#b1c9db" stroke="#b1c9db"></path><path d="M0 304L0 375L71 338Z" fill="#5f96b8" stroke="#5f96b8"></path><path d="M63 466L64 547L110 543Z" fill="#75a3c0" stroke="#75a3c0"></path><path d="M854 427L790 382L800 435Z" fill="#ffffff" stroke="#ffffff"></path><path d="M854 427L860 355L790 382Z" fill="#9dbcd2" stroke="#9dbcd2"></path><path d="M842 243L900 222L844 194Z" fill="#478aaf" stroke="#478aaf"></path><path d="M800 67L769 0L741 63Z" fill="#ffffff" stroke="#ffffff"></path><path d="M844 194L834 103L794 185Z" fill="#c4d6e4" stroke="#c4d6e4"></path><path d="M800 67L840 0L769 0Z" fill="#89afc9" stroke="#89afc9"></path><path d="M0 375L0 410L76 413Z" fill="#ffffff" stroke="#ffffff"></path><path d="M670 600L739 600L727 526Z" fill="#5f96b8" stroke="#5f96b8"></path><path d="M840 496L800 435L772 489Z" fill="#ebf1f6" stroke="#ebf1f6"></path><path d="M840 496L772 489L777 539Z" fill="#c4d6e4" stroke="#c4d6e4"></path><path d="M0 537L64 547L63 466Z" fill="#ffffff" stroke="#ffffff"></path><path d="M0 47L56 123L81 77Z" fill="#d8e4ed" stroke="#d8e4ed"></path><path d="M859 547L840 496L777 539Z" fill="#9dbcd2" stroke="#9dbcd2"></path><path d="M900 109L852 80L834 103Z" fill="#9dbcd2" stroke="#9dbcd2"></path><path d="M834 103L852 80L800 67Z" fill="#297ea6" stroke="#297ea6"></path><path d="M900 176L834 103L844 194Z" fill="#5f96b8" stroke="#5f96b8"></path><path d="M0 410L0 475L63 466Z" fill="#d8e4ed" stroke="#d8e4ed"></path><path d="M900 375L900 318L860 355Z" fill="#75a3c0" stroke="#75a3c0"></path><path d="M860 355L900 318L823 301Z" fill="#ffffff" stroke="#ffffff"></path><path d="M900 375L860 355L854 427Z" fill="#297ea6" stroke="#297ea6"></path><path d="M900 318L900 222L842 243Z" fill="#89afc9" stroke="#89afc9"></path><path d="M99 0L37 0L81 77Z" fill="#5f96b8" stroke="#5f96b8"></path><path d="M739 600L784 600L777 539Z" fill="#c4d6e4" stroke="#c4d6e4"></path><path d="M900 413L900 375L854 427Z" fill="#297ea6" stroke="#297ea6"></path><path d="M900 222L900 176L844 194Z" fill="#89afc9" stroke="#89afc9"></path><path d="M37 0L0 47L81 77Z" fill="#ebf1f6" stroke="#ebf1f6"></path><path d="M0 600L60 600L64 547Z" fill="#89afc9" stroke="#89afc9"></path><path d="M64 547L60 600L110 543Z" fill="#9dbcd2" stroke="#9dbcd2"></path><path d="M900 495L900 413L854 427Z" fill="#5f96b8" stroke="#5f96b8"></path><path d="M900 495L854 427L840 496Z" fill="#d8e4ed" stroke="#d8e4ed"></path><path d="M900 47L840 0L852 80Z" fill="#9dbcd2" stroke="#9dbcd2"></path><path d="M852 80L840 0L800 67Z" fill="#ffffff" stroke="#ffffff"></path><path d="M0 475L0 537L63 466Z" fill="#d8e4ed" stroke="#d8e4ed"></path><path d="M900 176L900 109L834 103Z" fill="#5f96b8" stroke="#5f96b8"></path><path d="M841 600L859 547L777 539Z" fill="#b1c9db" stroke="#b1c9db"></path><path d="M37 0L0 0L0 47Z" fill="#b1c9db" stroke="#b1c9db"></path><path d="M900 531L900 495L840 496Z" fill="#75a3c0" stroke="#75a3c0"></path><path d="M784 600L841 600L777 539Z" fill="#ffffff" stroke="#ffffff"></path><path d="M859 547L900 531L840 496Z" fill="#478aaf" stroke="#478aaf"></path><path d="M900 109L900 47L852 80Z" fill="#ffffff" stroke="#ffffff"></path><path d="M0 537L0 600L64 547Z" fill="#c4d6e4" stroke="#c4d6e4"></path><path d="M900 600L900 531L859 547Z" fill="#c4d6e4" stroke="#c4d6e4"></path><path d="M900 47L900 0L840 0Z" fill="#5f96b8" stroke="#5f96b8"></path><path d="M841 600L900 600L859 547Z" fill="#297ea6" stroke="#297ea6"></path></g></svg>